# Blender 4.1.1
# www.blender.org
mtllib forest.mtl
o Plane
v -76.127945 7.355408 76.697586
v 82.861984 12.460256 82.861984
v -75.362778 12.460256 -75.885689
v 18.228039 13.201568 -9.886817
v 82.861984 12.460256 -82.861984
v -76.515236 12.460256 0.000000
v 0.000000 6.590515 82.861984
v 82.861984 12.460256 0.000000
v 0.000000 12.460256 -92.766769
v 0.000000 17.851990 0.000000
v -86.298523 12.277184 52.599289
v 41.430992 12.460256 82.861984
v 82.861984 9.736864 -41.430992
v -41.430992 12.460256 -92.996635
v -75.085526 12.460256 -41.430992
v -41.430992 5.015716 92.390511
v 82.861984 15.954359 41.430992
v 41.430992 3.679134 -82.861984
v 0.000000 8.434015 -41.430992
v 0.000000 12.460256 41.430992
v -41.430992 12.460256 0.000000
v 41.430992 9.191011 0.000000
v 41.430992 8.094555 41.430992
v -41.430992 6.442129 41.430992
v -41.430992 12.460256 -41.430992
v 41.430992 12.460256 -41.430992
v -76.173355 7.350371 62.146484
v 62.146484 12.460256 91.317055
v 82.861984 6.831312 -62.146484
v -62.146484 12.460256 -82.861984
v -82.861984 12.460256 -20.715496
v -20.715496 3.864211 87.868332
v 69.131447 12.460256 20.715496
v 20.715496 8.456125 -82.861984
v 0.000000 12.460256 -62.146484
v 0.000000 12.460256 20.715496
v -62.146484 12.460256 0.000000
v 20.715496 12.460256 0.000000
v -86.360703 12.460256 20.715496
v 20.715496 6.880735 88.725494
v 82.861984 4.541326 -20.715496
v -20.715496 12.460256 -76.891998
v -82.861984 12.460256 -62.146484
v -62.146484 5.061692 86.679047
v 93.456139 12.460256 62.146484
v 62.146484 12.460256 -92.759926
v 0.000000 12.460256 -20.715496
v 0.000000 18.006550 62.146484
v -20.715496 12.460256 0.000000
v 62.146484 12.460256 0.000000
v 41.430992 12.460256 20.715496
v 41.430992 8.094555 62.146484
v 20.715496 12.460256 41.430992
v 62.146484 12.460256 41.430992
v -41.430992 6.442129 20.715496
v -41.430992 12.460256 62.146484
v -62.146484 12.460256 41.430992
v -20.715496 12.460256 41.430992
v -41.430992 17.685011 -62.146484
v -41.430992 12.460256 -20.715496
v -62.146484 19.358440 -41.430992
v -20.715496 12.460256 -41.430992
v 41.430992 12.460256 -62.146484
v 41.430992 12.460256 -20.715496
v 20.715496 8.434015 -41.430992
v 62.146484 12.460256 -41.430992
v 62.146484 12.460256 -20.715496
v 20.715496 12.460256 -20.715496
v 20.715496 12.460256 -62.146484
v -20.715496 12.460256 -20.715496
v -62.146484 19.358440 -20.715496
v -62.146484 12.460256 -62.146484
v -20.715496 12.460256 62.146484
v -62.146484 12.460256 62.146484
v -62.146484 17.806681 20.715496
v 62.146484 12.460256 62.146484
v 20.715496 12.460256 62.146484
v 20.715496 12.460256 20.715496
v 62.146484 12.460256 20.715496
v -20.715496 12.460256 20.715496
v -20.715496 17.685011 -62.146484
v 62.146484 19.815258 -62.146484
v 18.228039 13.107679 -9.208557
v 18.228039 13.107679 -9.886817
vn 0.3058 0.9515 -0.0320
vn 0.0812 0.9902 -0.1140
vn -0.1280 0.9835 0.1280
vn -0.0000 1.0000 -0.0000
vn 0.0784 0.9938 -0.0784
vn 0.2062 0.9785 -0.0000
vn -0.0667 0.9927 0.1008
vn 0.2645 0.9643 0.0156
vn 0.1423 0.9795 -0.1423
vn -0.1315 0.9825 -0.1315
vn -0.1485 0.9839 -0.0997
vn 0.3159 0.9488 -0.0000
vn 0.0963 0.9907 -0.0963
vn 0.1095 0.9498 -0.2931
vn -0.0963 0.9907 -0.0963
vn 0.2470 0.9615 0.1206
vn -0.0784 0.9938 0.0784
vn 0.1845 0.9654 -0.1845
vn -0.0000 0.9816 -0.1908
vn 0.1195 0.9834 -0.1364
vn 0.2519 0.9678 -0.0000
vn 0.0784 0.9938 0.0784
vn 0.1142 0.9905 -0.0773
vn -0.0000 0.9816 0.1908
vn -0.0963 0.9907 0.0963
vn -0.1280 0.9835 -0.1280
vn -0.3783 0.9229 -0.0710
vn -0.1894 0.9634 0.1894
vn 0.1621 0.9734 0.1621
vn -0.1992 0.9720 -0.1244
vn 0.0403 0.9984 -0.0403
vn -0.1423 0.9795 -0.1423
vn 0.0567 0.9597 0.2751
vn -0.1343 0.9100 0.3922
vn -0.0812 0.9791 0.1866
vn -0.1629 0.9694 0.1836
vn -0.0350 0.9646 0.2614
vn -0.1355 0.9780 -0.1584
vn -0.0892 0.9905 0.1042
vn 0.3842 0.9157 0.1182
vn -0.2062 0.9785 -0.0000
vn -0.0869 0.9924 -0.0869
vn 0.1315 0.9825 -0.1315
vn 0.0713 0.9387 0.3373
vn -0.0256 0.9993 0.0256
vn 0.1280 0.9835 0.1280
vn 0.1042 0.9891 0.1042
vn -0.0784 0.9938 -0.0784
vn -0.1042 0.9891 0.1042
vn -0.1250 0.9913 -0.0422
vn -0.1423 0.9795 0.1423
vn -0.2790 0.9603 -0.0000
vn 0.0865 0.9711 -0.2225
vn -0.0000 0.9696 0.2446
vn 0.2129 0.9536 0.2129
vn -0.4052 0.8722 -0.2742
vn -0.1722 0.9699 0.1722
vn 0.3527 0.9304 0.0999
vn 1.0000 -0.0000 -0.0000
vt 2.546578 1.342664
vt 3.028119 1.142011
vt 3.228771 1.623551
vt 2.747231 1.824204
vt 0.620417 2.145273
vt 1.101957 1.944621
vt 1.302610 2.426161
vt 0.821070 2.626814
vt -0.182193 0.219112
vt 0.299348 0.018460
vt 0.500000 0.500000
vt 0.018460 0.700652
vt 1.743968 -0.583498
vt 2.225509 -0.784150
vt 2.426161 -0.302610
vt 1.944621 -0.101957
vt 0.780888 -0.182193
vt 1.262428 -0.382845
vt 1.463081 0.098695
vt 0.981540 0.299348
vt 0.379583 -1.145273
vt 0.861123 -1.345926
vt 1.061776 -0.864386
vt 0.580235 -0.663733
vt 1.342664 -1.546578
vt 1.824204 -1.747231
vt 2.024856 -1.265691
vt 1.543316 -1.065038
vt -1.145273 0.620417
vt -0.663733 0.419765
vt -0.463081 0.901305
vt -0.944621 1.101957
vt -1.546578 -0.342664
vt -1.065038 -0.543316
vt -0.864386 -0.061776
vt -1.345926 0.138877
vt -0.583498 -0.743968
vt -0.101957 -0.944621
vt 0.098695 -0.463081
vt -0.382845 -0.262428
vt -0.342664 2.546578
vt 0.138877 2.345926
vt 0.339529 2.827466
vt -0.142011 3.028119
vt -0.743968 1.583498
vt -0.262428 1.382845
vt -0.061776 1.864386
vt -0.543316 2.065038
vt 0.219112 1.182193
vt 0.700652 0.981540
vt 0.901305 1.463081
vt 0.419765 1.663733
vt 1.583498 1.743968
vt 2.065038 1.543316
vt 2.265691 2.024856
vt 1.784150 2.225509
vt 1.182193 0.780888
vt 1.663733 0.580235
vt 1.864386 1.061776
vt 1.382845 1.262428
vt 2.145273 0.379583
vt 2.626814 0.178930
vt 2.827466 0.660471
vt 2.345926 0.861123
vt 1.011636 0.536972
vt 1.018149 0.552715
vt -1.225509 1.784150
vt -1.024856 2.265691
vt -1.426161 1.302610
vt -0.824204 2.747231
vt -0.623551 3.228771
vt -1.265691 -1.024856
vt -0.784150 -1.225509
vt -0.302610 -1.426161
vt -2.028119 -0.142011
vt -1.827466 0.339529
vt -2.228771 -0.623551
vt -1.747231 -0.824204
vt -1.626814 0.821070
vt 0.660471 -1.827466
vt 1.142011 -2.028119
vt 1.623551 -2.228771
vt 0.178930 -1.626814
vt 0.000000 1.000000
vt 0.000000 0.660870
s 0
usemtl trees
f 82/1/1 29/2/1 5/3/1 46/4/1
f 81/5/2 35/6/2 9/7/2 42/8/2
f 80/9/3 36/10/3 10/11/3 49/12/3
f 79/13/4 33/14/4 8/15/4 50/16/4
f 78/17/5 51/18/5 22/19/5 38/20/5
f 77/21/6 52/22/6 23/23/6 53/24/6
f 76/25/7 45/26/7 17/27/7 54/28/7
f 75/29/8 55/30/8 21/31/8 37/32/8
f 74/33/9 56/34/9 24/35/9 57/36/9
f 73/37/10 48/38/10 20/39/10 58/40/10
f 72/41/11 59/42/11 14/43/11 30/44/11
f 71/45/12 60/46/12 25/47/12 61/48/12
f 70/49/13 47/50/13 19/51/13 62/52/13
f 69/53/14 63/54/14 18/55/14 34/56/14
f 68/57/15 64/58/15 26/59/15 65/60/15
f 67/61/16 41/62/16 13/63/16 66/64/16
f 64/58/4 67/61/4 66/64/4 26/59/4
f 22/19/17 50/16/17 67/61/17 64/58/17
f 50/16/18 8/15/18 41/62/18 67/61/18
f 47/50/19 68/57/19 65/60/19 19/51/19
f 47/50/20 10/11/20 38/20/20 83/65/20 84/66/20 68/57/20
f 83/65/21 38/20/21 68/57/21 84/66/21
f 38/20/22 22/19/22 64/58/22 68/57/22
f 35/6/23 69/53/23 34/56/23 9/7/23
f 19/51/24 65/60/24 69/53/24 35/6/24
f 65/60/25 26/59/25 63/54/25 69/53/25
f 60/46/4 70/49/4 62/52/4 25/47/4
f 21/31/4 49/12/4 70/49/4 60/46/4
f 49/12/26 10/11/26 47/50/26 70/49/26
f 31/67/27 71/45/27 61/48/27 15/68/27
f 6/69/28 37/32/28 71/45/28 31/67/28
f 37/32/29 21/31/29 60/46/29 71/45/29
f 43/70/4 72/41/4 30/44/4 3/71/4
f 15/68/30 61/48/30 72/41/30 43/70/30
f 61/48/31 25/47/31 59/42/31 72/41/31
f 56/34/32 73/37/32 58/40/32 24/35/32
f 16/72/33 32/73/33 73/37/33 56/34/33
f 32/73/34 7/74/34 48/38/34 73/37/34
f 27/75/35 74/33/35 57/36/35 11/76/35
f 1/77/36 44/78/36 74/33/36 27/75/36
f 44/78/37 16/72/37 56/34/37 74/33/37
f 39/79/38 75/29/38 37/32/38 6/69/38
f 11/76/39 57/36/39 75/29/39 39/79/39
f 57/36/40 24/35/40 55/30/40 75/29/40
f 52/22/41 76/25/41 54/28/41 23/23/41
f 12/80/42 28/81/42 76/25/42 52/22/42
f 28/81/4 2/82/4 45/26/4 76/25/4
f 48/38/43 77/21/43 53/24/43 20/39/43
f 7/74/44 40/83/44 77/21/44 48/38/44
f 40/83/45 12/80/45 52/22/45 77/21/45
f 36/10/46 78/17/46 38/20/46 10/11/46
f 20/39/4 53/24/4 78/17/4 36/10/4
f 53/24/47 23/23/47 51/18/47 78/17/47
f 51/18/48 79/13/48 50/16/48 22/19/48
f 23/23/49 54/28/49 79/13/49 51/18/49
f 54/28/50 17/27/50 33/14/50 79/13/50
f 55/30/51 80/9/51 49/12/51 21/31/51
f 24/35/52 58/40/52 80/9/52 55/30/52
f 58/40/4 20/39/4 36/10/4 80/9/4
f 59/42/53 81/5/53 42/8/53 14/43/53
f 25/47/54 62/52/54 81/5/54 59/42/54
f 62/52/55 19/51/55 35/6/55 81/5/55
f 63/54/56 82/1/56 46/4/56 18/55/56
f 26/59/57 66/64/57 82/1/57 63/54/57
f 66/64/58 13/63/58 29/2/58 82/1/58
f 84/84/59 4/84/59 83/85/59
o Cube
v 1.000000 -1.000000 1.000000
v 1.000000 -1.000000 1.000000
v -0.000000 15.926381 6.978419
v 0.000000 -1.000000 6.978419
v -0.000000 16.437315 4.978419
v 0.000000 -1.000000 4.978419
v -20.143583 12.381533 -12.443611
v -20.143583 -1.000000 -12.443611
v -20.143583 12.420742 -14.443611
v -20.143583 -1.000000 -14.443611
v -13.276384 12.084619 25.239891
v -13.276384 -1.000000 25.239891
v -13.276384 12.453671 23.239891
v -13.276384 -1.000000 23.239891
v 11.166029 12.361884 33.013474
v 11.166029 -1.000000 33.013474
v 11.166029 12.292934 31.013474
v 11.166029 -1.000000 31.013474
v 34.957069 12.004161 17.363535
v 34.957069 -1.000000 17.363535
v 34.957069 11.566152 15.363535
v 34.957069 -1.000000 15.363535
v 18.228039 12.924718 -7.886818
v 18.228039 -1.000000 -7.886818
v 18.228039 13.201569 -9.886818
v 18.228039 -1.000000 -9.886818
v 27.893799 11.536141 -24.277004
v 27.893799 -1.000000 -24.277004
v 27.893799 12.047074 -26.277004
v 27.893799 -1.000000 -26.277004
v 45.008980 12.639996 -42.796585
v 45.008980 -1.000000 -42.796585
v 45.008980 13.150928 -44.796585
v 45.008980 -1.000000 -44.796585
v 56.673000 15.926381 -59.864822
v 56.673000 -1.000000 -59.864822
v 56.673000 16.437315 -61.864822
v 56.673000 -1.000000 -61.864822
v 51.887196 12.187881 -19.866604
v 51.887196 -1.000000 -19.866604
v 51.887196 12.358280 -21.866604
v 51.887196 -1.000000 -21.866604
v 53.476334 10.436414 30.466084
v 53.476334 -1.000000 30.466084
v 53.476334 10.710440 28.466084
v 53.476334 -1.000000 28.466084
v 6.912960 12.497310 -20.635117
v 6.912960 -1.000000 -20.635117
v 6.912960 12.073163 -22.635117
v 6.912960 -1.000000 -22.635117
v 12.322857 9.659006 -49.519791
v 12.322857 -1.000000 -49.519791
v 12.322857 10.169939 -51.519791
v 12.322857 -1.000000 -51.519791
v 5.323822 11.050096 -70.967804
v 5.323822 -1.000000 -70.967804
v 5.323822 11.154803 -72.967804
v 5.323822 -1.000000 -72.967804
v 72.708275 12.225222 68.371674
v 72.708275 -1.000000 68.371674
v 72.708275 12.282624 66.371674
v 72.708275 -1.000000 66.371674
v -48.317558 14.313160 -70.947784
v -48.317558 -1.000000 -70.947784
v -48.317558 14.068933 -72.947784
v -48.317558 -1.000000 -72.947784
v -18.669575 12.084619 -75.378204
v -18.669575 -1.000000 -75.378204
v -18.669575 12.453671 -77.378204
v -18.669575 -1.000000 -77.378204
v -28.335335 15.926381 -58.988018
v -28.335335 -1.000000 -58.988018
v -28.335335 16.437315 -60.988018
v -28.335335 -1.000000 -60.988018
v -11.606304 10.758768 -33.737663
v -11.606304 -1.000000 -33.737663
v -11.606304 10.530554 -35.737663
v -11.606304 -1.000000 -35.737663
v -35.397346 12.544237 -18.087727
v -35.397346 -1.000000 -18.087727
v -35.397346 12.296938 -20.087727
v -35.397346 -1.000000 -20.087727
v -59.839760 18.562738 -25.861309
v -59.839760 -1.000000 -25.861309
v -59.839760 18.549843 -27.861309
v -59.839760 -1.000000 -27.861309
v -66.706955 12.335542 -63.544815
v -66.706955 -1.000000 -63.544815
v -66.706955 12.435268 -65.544815
v -66.706955 -1.000000 -65.544815
v -46.563374 14.876652 -44.122780
v -46.563374 -1.000000 -44.122780
v -46.563374 15.387585 -46.122780
v -46.563374 -1.000000 -46.122780
v 13.864147 14.113261 53.880051
v 13.864147 -1.000000 53.880051
v 13.864147 14.217833 51.880051
v 13.864147 -1.000000 51.880051
v -6.279434 12.084619 34.458015
v -6.279434 -1.000000 34.458015
v -6.279434 12.453671 32.458015
v -6.279434 -1.000000 32.458015
v 0.587761 12.024622 72.141525
v 0.587761 -1.000000 72.141525
v 0.587761 13.305796 70.141525
v 0.587761 -1.000000 70.141525
v 25.030174 7.612714 79.915100
v 25.030174 -1.000000 79.915100
v 25.030174 8.123647 77.915100
v 25.030174 -1.000000 77.915100
v 48.821217 9.659006 64.265167
v 48.821217 -1.000000 64.265167
v 48.821217 10.169939 62.265167
v 48.821217 -1.000000 62.265167
v 32.092186 9.659006 39.014812
v 32.092186 -1.000000 39.014812
v 32.092186 10.169939 37.014812
v 32.092186 -1.000000 37.014812
v 41.757946 11.728035 22.624626
v 41.757946 -1.000000 22.624626
v 41.757946 12.238968 20.624626
v 41.757946 -1.000000 20.624626
v 58.873127 12.215197 4.105049
v 58.873127 -1.000000 4.105049
v 58.873127 12.172907 2.105049
v 58.873127 -1.000000 2.105049
v 70.537148 12.334274 4.105049
v 70.537148 -1.000000 4.105049
v 70.537148 12.143653 2.105049
v 70.537148 -1.000000 2.105049
v 65.751343 12.384861 27.035027
v 65.751343 -1.000000 27.035027
v 65.751343 12.400919 25.035027
v 65.751343 -1.000000 25.035027
v 72.750381 13.998498 48.483040
v 72.750381 -1.000000 48.483040
v 72.750381 14.067182 46.483040
v 72.750381 -1.000000 46.483040
v 67.340485 12.190894 77.367714
v 67.340485 -1.000000 77.367714
v 67.340485 12.358841 75.367714
v 67.340485 -1.000000 75.367714
v -23.869862 7.519133 77.367714
v -23.869862 -1.000000 77.367714
v -23.869862 8.030066 75.367714
v -23.869862 -1.000000 75.367714
v -18.459965 12.839119 48.483040
v -18.459965 -1.000000 48.483040
v -18.459965 12.212589 46.483040
v -18.459965 -1.000000 46.483040
v -25.459003 9.659006 27.035027
v -25.459003 -1.000000 27.035027
v -25.459003 10.169939 25.035027
v -25.459003 -1.000000 25.035027
v -20.673199 11.982246 4.105049
v -20.673199 -1.000000 4.105049
v -20.673199 12.493179 2.105049
v -20.673199 -1.000000 2.105049
v -32.337219 11.083728 4.105049
v -32.337219 -1.000000 4.105049
v -32.337219 11.594661 2.105049
v -32.337219 -1.000000 2.105049
v -49.452400 8.269222 22.624626
v -49.452400 -1.000000 22.624626
v -49.452400 8.780155 20.624626
v -49.452400 -1.000000 20.624626
v -59.118160 9.659006 39.014812
v -59.118160 -1.000000 39.014812
v -59.118160 10.169939 37.014812
v -59.118160 -1.000000 37.014812
v -42.389130 9.659006 64.265167
v -42.389130 -1.000000 64.265167
v -42.389130 10.169939 62.265167
v -42.389130 -1.000000 62.265167
v -66.180176 7.335670 79.915100
v -66.180176 -1.000000 79.915100
v -66.180176 7.846603 77.915100
v -66.180176 -1.000000 77.915100
v -72.845940 13.951508 18.100868
v -72.845940 -1.000000 18.100868
v -72.845940 13.757662 16.100868
v -72.845940 -1.000000 16.100868
v -52.895084 12.359208 -3.900880
v -20.143581 12.381536 -12.443611
v -52.895084 -1.000000 -3.900880
v -20.143581 -0.999998 -12.443611
v -52.895084 12.216768 -5.900880
v -20.143581 12.420745 -14.443611
v -52.895084 -1.000000 -5.900880
v -20.143581 -0.999998 -14.443611
v -77.346199 9.539594 53.880051
v -77.346199 -1.000000 53.880051
v -77.346199 11.142267 51.880051
v -77.346199 -1.000000 51.880051
v 70.432182 9.659006 -33.965969
v 70.432182 -1.000000 -33.965969
v 70.432182 10.169939 -35.965969
v 70.432182 -1.000000 -35.965969
vn 1.0000 -0.0000 -0.0000
vt 0.000000 0.000000
vt 1.000000 0.000000
vt 1.000000 1.000000
vt 0.000000 1.000000
s 0
usemtl tree01
f 87/86/60 88/87/60 90/88/60 89/89/60
f 91/86/60 92/87/60 94/88/60 93/89/60
f 95/86/60 96/87/60 98/88/60 97/89/60
f 99/86/60 100/87/60 102/88/60 101/89/60
f 103/86/60 104/87/60 106/88/60 105/89/60
f 107/86/60 108/87/60 110/88/60 109/89/60
f 111/86/60 112/87/60 114/88/60 113/89/60
f 115/86/60 116/87/60 118/88/60 117/89/60
f 119/86/60 120/87/60 122/88/60 121/89/60
f 123/86/60 124/87/60 126/88/60 125/89/60
f 127/86/60 128/87/60 130/88/60 129/89/60
f 131/86/60 132/87/60 134/88/60 133/89/60
f 135/86/60 136/87/60 138/88/60 137/89/60
f 139/86/60 140/87/60 142/88/60 141/89/60
f 143/86/60 144/87/60 146/88/60 145/89/60
f 147/86/60 148/87/60 150/88/60 149/89/60
f 151/86/60 152/87/60 154/88/60 153/89/60
f 155/86/60 156/87/60 158/88/60 157/89/60
f 159/86/60 160/87/60 162/88/60 161/89/60
f 163/86/60 164/87/60 166/88/60 165/89/60
f 167/86/60 168/87/60 170/88/60 169/89/60
f 171/86/60 172/87/60 174/88/60 173/89/60
f 175/86/60 176/87/60 178/88/60 177/89/60
f 179/86/60 180/87/60 182/88/60 181/89/60
f 183/86/60 184/87/60 186/88/60 185/89/60
f 187/86/60 188/87/60 190/88/60 189/89/60
f 191/86/60 192/87/60 194/88/60 193/89/60
f 195/86/60 196/87/60 198/88/60 197/89/60
f 199/86/60 200/87/60 202/88/60 201/89/60
f 203/86/60 204/87/60 206/88/60 205/89/60
f 207/86/60 208/87/60 210/88/60 209/89/60
f 211/86/60 212/87/60 214/88/60 213/89/60
f 215/86/60 216/87/60 218/88/60 217/89/60
f 219/86/60 220/87/60 222/88/60 221/89/60
f 223/86/60 224/87/60 226/88/60 225/89/60
f 227/86/60 228/87/60 230/88/60 229/89/60
f 231/86/60 232/87/60 234/88/60 233/89/60
f 235/86/60 236/87/60 238/88/60 237/89/60
f 239/86/60 240/87/60 242/88/60 241/89/60
f 243/86/60 244/87/60 246/88/60 245/89/60
f 247/86/60 248/87/60 250/88/60 249/89/60
f 251/86/60 252/87/60 254/88/60 253/89/60
f 255/86/60 256/87/60 258/88/60 257/89/60
f 259/86/60 260/87/60 262/88/60 261/89/60
f 263/86/60 264/87/60 266/88/60 265/89/60
f 267/86/60 269/87/60 273/88/60 271/89/60
f 268/86/60 270/87/60 274/88/60 272/89/60
f 275/86/60 276/87/60 278/88/60 277/89/60
f 279/86/60 280/87/60 282/88/60 281/89/60
